<?xml version="1.0" encoding="UTF-8" standalone="no"?>
<svg
   height="24px"
   viewBox="0 -960 960 960"
   width="24px"
   fill="#e3e3e3"
   version="1.1"
   id="svg1"
   sodipodi:docname="smoke_free_24dp_E3E3E3_FILL0_wght400_GRAD0_opsz24.svg"
   inkscape:version="1.4.2 (ebf0e940, 2025-05-08)"
   xmlns:inkscape="http://www.inkscape.org/namespaces/inkscape"
   xmlns:sodipodi="http://sodipodi.sourceforge.net/DTD/sodipodi-0.dtd"
   xmlns="http://www.w3.org/2000/svg"
   xmlns:svg="http://www.w3.org/2000/svg">
  <defs
     id="defs1" />
  <sodipodi:namedview
     id="namedview1"
     pagecolor="#ffffff"
     bordercolor="#000000"
     borderopacity="0.25"
     inkscape:showpageshadow="2"
     inkscape:pageopacity="0.0"
     inkscape:pagecheckerboard="0"
     inkscape:deskcolor="#d1d1d1"
     inkscape:zoom="34.666667"
     inkscape:cx="11.985577"
     inkscape:cy="12"
     inkscape:window-width="3360"
     inkscape:window-height="1381"
     inkscape:window-x="80"
     inkscape:window-y="31"
     inkscape:window-maximized="1"
     inkscape:current-layer="svg1" />
  <path
     d="M792-56 528-320H80v-120h328L56-792l56-56 736 736-56 56Zm-38-264-34-34v-86h60v120h-26Zm66 0v-120h60v120h-60Zm-140-74-46-46h46v46Zm40-86v-52q0-39-23-59.5T642-612h-62q-56 0-95-39t-39-95q0-56 39-95t95-39v60q-30 0-52 21t-22 53q0 32 22 53t52 21h62q56 0 97 36t41 90v66h-60Zm100 0v-90q0-66-46-114t-114-48v-60q30 0 52-22t22-52h60q0 29-11 52.5T754-770q56 26 91 80t35 120v90h-60Z"
     id="path1" />
  <path
     style="fill:#2ca02c;stroke-width:0.0288462"
     d="M 16.514337,19.283567 13.226056,15.995192 H 7.6226435 2.0192308 v -1.485577 -1.485577 h 4.0961538 c 2.2528846,0 4.0961534,-0.0097 4.0961534,-0.0216 0,-0.01188 -1.9762966,-1.997928 -4.3917708,-4.413441 L 1.427996,4.1971558 2.1130716,3.5120802 2.7981472,2.8270046 l 9.1875748,9.1875744 9.187575,9.187575 -0.68534,0.684894 -0.685341,0.684894 z"
     id="path2"
     transform="matrix(40,0,0,40,0,-960)" />
  <path
     style="fill:#2ca02c;stroke-width:0.0288462"
     d="M 18,11.176668 C 18,10.254815 17.974396,10.060283 17.806527,9.7067308 17.665943,9.410644 17.322815,9.0674818 17.017699,8.9178228 16.604618,8.7152071 16.470955,8.6971797 15.377597,8.6966155 14.307591,8.6960634 13.990661,8.6730961 13.592784,8.5672719 12.345433,8.235512 11.378798,7.1315538 11.193313,5.8269231 11.013898,4.5649899 11.555558,3.3305759 12.615207,2.5865058 13.083805,2.257463 13.605137,2.0785219 14.271635,2.0179567 l 0.209134,-0.019004 v 0.7354184 c 0,0.8138738 0.01088,0.7704369 -0.192907,0.7704369 -0.160418,0 -0.439143,0.082547 -0.647457,0.1917512 -0.90448,0.4741534 -1.259968,1.5636241 -0.81278,2.4909411 0.146081,0.3029213 0.512634,0.669761 0.816606,0.8172424 0.398954,0.1935655 0.431344,0.1975373 1.802884,0.2210841 1.119133,0.019213 1.263162,0.027151 1.473391,0.081206 1.145069,0.2944215 2.073459,1.0871216 2.405061,2.0535447 0.132751,0.3868904 0.148846,0.5431515 0.165646,1.6081735 l 0.01604,1.016827 H 18.753626 18 Z"
     id="path3"
     transform="matrix(40,0,0,40,0,-960)" />
  <path
     style="fill:#2ca02c;stroke-width:0.0288462"
     d="M 20.501892,10.564904 C 20.490745,9.2478421 20.485448,9.1252967 20.429265,8.8846154 20.243944,8.0907242 19.915556,7.4823066 19.359073,6.9018277 18.647628,6.1597062 17.804407,5.7620815 16.824519,5.7066485 L 16.5,5.6882899 V 4.9584329 4.2285757 l 0.108173,-0.015887 c 0.351299,-0.051593 0.479022,-0.087104 0.699519,-0.1944895 0.196716,-0.095803 0.29412,-0.1683388 0.492663,-0.3668826 0.353924,-0.3539238 0.47649,-0.6142163 0.561372,-1.1921823 l 0.01589,-0.1081731 h 0.736731 0.736731 l -0.01956,0.2235577 c -0.04302,0.4916742 -0.159284,0.8907643 -0.377046,1.2942227 -0.138809,0.2571772 -0.4003,0.6363956 -0.539417,0.7822683 -0.04895,0.051325 -0.08339,0.098464 -0.07654,0.1047543 0.0068,0.00629 0.09402,0.052325 0.193712,0.1022995 1.399254,0.7014252 2.493983,2.1315117 2.82838,3.6948206 0.102174,0.4776669 0.120167,0.7971167 0.120167,2.1334787 v 1.299214 h -0.733426 -0.733426 z"
     id="path4"
     transform="matrix(40,0,0,40,0,-960)" />
  <path
     style="fill:#2ca02c;stroke-width:0.0288462"
     d="m 20.509615,14.509615 v -1.485577 h 0.735577 0.735577 v 1.485577 1.485577 h -0.735577 -0.735577 z"
     id="path5"
     transform="matrix(40,0,0,40,0,-960)" />
  <path
     style="fill:#2ca02c;stroke-width:0.0288462"
     d="M 18.42512,15.569362 18,15.143532 v -1.059747 -1.059747 h 0.75 0.75 v 1.485577 1.485577 h -0.32488 -0.32488 z"
     id="path6"
     transform="matrix(40,0,0,40,0,-960)" />
  <path
     style="fill:#2ca02c;stroke-width:0.0288462"
     d="m 16.427885,13.572115 -0.547508,-0.548077 h 0.555004 0.555004 v 0.548077 c 0,0.301443 -0.0034,0.548077 -0.0075,0.548077 -0.0041,0 -0.253874,-0.246634 -0.555003,-0.548077 z"
     id="path7"
     transform="matrix(40,0,0,40,0,-960)" />
</svg>
